<svg xmlns="http://www.w3.org/2000/svg" xmlns:xlink="http://www.w3.org/1999/xlink" viewBox="0 0 357.89 142.29">
    <defs>
        <style>.cls-1{fill:url(#linear-gradient);}.cls-2{fill:url(#linear-gradient-2);}.cls-3{fill:url(#linear-gradient-3);}.cls-4{fill:url(#linear-gradient-4);}</style>
        <linearGradient id="linear-gradient" y1="72.13" x2="89.32" y2="72.13" gradientUnits="userSpaceOnUse">
            <stop offset="0.02"/>
            <stop offset="0.2" stop-color="#020202"/>
            <stop offset="0.26" stop-color="#090909"/>
            <stop offset="0.3" stop-color="#141414"/>
            <stop offset="0.34" stop-color="#252525"/>
            <stop offset="0.37" stop-color="#3b3b3b"/>
            <stop offset="0.4" stop-color="#575757"/>
            <stop offset="0.42" stop-color="#777"/>
            <stop offset="0.44" stop-color="#9d9d9d"/>
            <stop offset="0.46" stop-color="#c8c8c8"/>
            <stop offset="0.48" stop-color="#f6f6f6"/>
            <stop offset="0.49" stop-color="#fff"/>
            <stop offset="0.49" stop-color="#f6f6f6"/>
            <stop offset="0.51" stop-color="#c8c8c8"/>
            <stop offset="0.53" stop-color="#9d9d9d"/>
            <stop offset="0.56" stop-color="#777"/>
            <stop offset="0.59" stop-color="#575757"/>
            <stop offset="0.62" stop-color="#3b3b3b"/>
            <stop offset="0.65" stop-color="#252525"/>
            <stop offset="0.69" stop-color="#141414"/>
            <stop offset="0.74" stop-color="#090909"/>
            <stop offset="0.81" stop-color="#020202"/>
            <stop offset="1"/>
        </linearGradient>
        <linearGradient id="linear-gradient-2" x1="114.81" y1="71.14" x2="131.41" y2="71.14" xlink:href="#linear-gradient"/>
        <linearGradient id="linear-gradient-3" x1="163.03" y1="72.11" x2="258.48" y2="72.11" xlink:href="#linear-gradient"/>
        <linearGradient id="linear-gradient-4" x1="275.29" y1="70.16" x2="357.89" y2="70.16" xlink:href="#linear-gradient"/>
    </defs>
    <title>Asset 3</title>
    <g id="Layer_2" data-name="Layer 2">
        <g id="Layer_1-2" data-name="Layer 1">
            <g id="Layer_1-3" data-name="Layer 1">
                <path class="cls-1" d="M0,2H34.78c29,0,54.54,8.3,54.54,43.67v3.56c0,34.39-25.49,43.87-54.54,43.87H16.6v49.21S0,142.29,0,132.41ZM16.6,15.62V79.44H34.78c22.33,0,37.94-4.35,37.94-32,0-25.69-15.61-31.82-37.94-31.82Z"/>
                <path class="cls-2" d="M114.81,0s16.6,0,16.6,9.88v132.4s-16.6,0-16.6-9.88Z"/>
                <path class="cls-3" d="M210.26,75.84c27.27,10.67,38.54,50.79,48.22,65.41a26,26,0,0,1-5.73.59c-5.53,0-14-1.78-19.17-11.26-15.61-29-22.92-50.19-54-54.15v65.81S163,142,163,132.36V2h40.71c27.07,0,46.64,8.5,46.64,33.4v5.93C250.38,63.64,233.58,75.84,210.26,75.84ZM179.63,15.61V63.44h25.69c21.14,0,28.46-8.69,28.46-25.1,0-16.8-9.68-22.73-30-22.73Z"/>
                <path class="cls-4" d="M291.89,140.31s-16.6,0-16.6-9.88V0s16.6,0,16.6,9.84V126.67h49c13.44,0,17-3,17-3,0,5.93-1.78,16.6-9.88,16.6Z"/>
            </g>
        </g>
    </g>
</svg>